:SAMPLES-PER-SECOND 30
:FULLY-SPECIFIED
:DEGREES
267
root  11.9873 39.5289 -5.56301 -38.7169 -69.1253 36.5623
RightUpLeg  -4.44245 -6.92433 -31.9862
RightLeg  24.8043 -16.4294 -8.25252
RightFoot  11.5161 -5.80625 28.5629
RightToes  -5.28226e-011 1.30204e-014 -6.03759e-014
Spine  29.4941 2.25974 16.6504
Spine1  -7.23901 7.44562 -16.2781
HEad  -19.4381 -34.2626 -3.5762
LeftShoulder1  0.648044 0.842857 -17.6926
LeftArm  -8.43374 -3.92971 -52.4819
LeftForeArm  -36.5018 -19.6526 -9.79535
LeftHand  -0.300249 3.97863 24.0417
RightShoulder  1.30223 1.19918 21.447
RightArm  -17.6318 -48.0842 20.7136
RightForeArm  -44.2313 13.019 5.8126
RightHand  -0.914157 0.000571263 -19.5832
LeftUpLeg  -31.5739 7.31191 17.5539
LeftLeg  23.5469 -8.41996 -3.62192
LeftFoot  24.1669 12.776 -39.1017
LeftToes  -2.75829e-010 5.07641e-011 -5.51782e-011
268
root  11.9897 38.9912 -6.0157 -48.1377 -73.234 46.1329
RightUpLeg  -11.1743 -3.5726 -30.1763
RightLeg  32.3732 -14.6959 -10.0362
RightFoot  8.50592 -4.87177 27.681
RightToes  -5.28226e-011 1.30204e-014 -6.03759e-014
Spine  29.0323 0.765032 6.11734
Spine1  -5.38301 2.68234 -7.04732
HEad  -21.7229 -17.3349 -7.38583
LeftShoulder1  1.39244 -1.73367 -19.9079
LeftArm  -14.6508 13.3373 -43.089
LeftForeArm  -43.4053 -35.5942 -9.45711
LeftHand  -0.279515 3.83664 20.6831
RightShoulder  0.986729 0.386964 18.9234
RightArm  -20.4666 -29.6141 24.6637
RightForeArm  -43.6787 13.7258 6.49336
RightHand  -1.18049 0.617168 -22.6917
LeftUpLeg  -25.2999 11.2973 19.5653
LeftLeg  19.3239 -12.3543 -4.51854
LeftFoot  24.1773 12.9847 -39.5452
LeftToes  -2.75829e-010 5.07641e-011 -5.51782e-011
269
root  11.8789 38.2846 -6.33641 -56.2627 -76.8035 53.3155
RightUpLeg  -15.1269 -2.44041 -28.2464
RightLeg  38.3725 -11.1176 -9.53597
RightFoot  5.11884 -3.95849 27.136
RightToes  -5.28226e-011 1.30204e-014 -6.03759e-014
Spine  29.3701 -1.49088 -5.39557
Spine1  -5.00593 -3.78168 4.55316
HEad  -21.6726 2.1833 -12.9253
LeftShoulder1  2.32838 -4.18025 -24.1612
LeftArm  -13.962 28.274 -32.1065
LeftForeArm  -41.874 -36.2348 -10.122
LeftHand  -0.392031 2.99349 18.636
RightShoulder  0.706427 -0.4156 16.3709
RightArm  -25.8677 -13.2263 34.2286
RightForeArm  -38.1311 19.1004 6.70715
RightHand  -1.43753 1.09985 -25.5402
LeftUpLeg  -19.3318 7.50652 24.505
LeftLeg  18.9226 -8.35939 -2.80181
LeftFoot  22.6476 9.3822 -30.5524
LeftToes  -2.75829e-010 5.07641e-011 -5.51782e-011
270
root  11.7694 37.3701 -6.3212 -51.785 -78.1848 47.3374
RightUpLeg  -15.1274 -5.02317 -27.301
RightLeg  42.3436 -6.74046 -6.83299
RightFoot  -0.060533 -2.79116 27.8243
RightToes  -5.28226e-011 1.30204e-014 -6.03759e-014
Spine  30.4889 -3.89475 -10.6515
Spine1  -5.12001 -8.59064 12.1608
HEad  -20.7837 14.0947 -15.8858
LeftShoulder1  2.54893 -4.44198 -25.9306
LeftArm  -1.78798 32.5174 -25.0931
LeftForeArm  -44.1736 -28.3167 -8.19677
LeftHand  -0.355276 3.35771 20.1865
RightShoulder  0.717804 -0.40751 16.6215
RightArm  -34.5136 -12.6931 43.87
RightForeArm  -30.3028 34.9966 9.63474
RightHand  -1.48991 0.890068 -27.2898
LeftUpLeg  -17.7704 2.88004 27.1976
LeftLeg  23.5569 -4.0063 -1.63089
LeftFoot  23.8787 7.03981 -22.4668
LeftToes  -2.75829e-010 5.07641e-011 -5.51782e-011
271
root  11.779 36.3895 -6.05048 -38.1957 -76.4433 33.2076
RightUpLeg  -14.0283 -9.23533 -28.3322
RightLeg  45.7358 -3.4614 -4.12122
RightFoot  -5.7109 -1.54011 29.907
RightToes  -5.28226e-011 1.30204e-014 -6.03759e-014
Spine  30.5385 -5.01947 -7.24543
Spine1  -5.02897 -8.63914 10.0038
HEad  -18.2555 11.5643 -13.9196
LeftShoulder1  1.70024 -2.25317 -23.133
LeftArm  2.70492 21.8941 -25.3492
LeftForeArm  -44.9501 -17.7104 -8.84344
LeftHand  -0.103616 4.89414 22.8916
RightShoulder  1.20269 1.15206 19.3063
RightArm  -41.0742 -29.0118 47.4582
RightForeArm  -25.352 56.0527 18.907
RightHand  -1.22799 -0.203965 -27.0931
LeftUpLeg  -21.5112 0.975938 26.1511
LeftLeg  30.7382 -3.90358 -2.18282
LeftFoot  28.0694 6.42089 -18.326
LeftToes  -2.75829e-010 5.07641e-011 -5.51782e-011
272
root  11.9562 35.3766 -5.51886 -30.3813 -73.0467 25.2643
RightUpLeg  -14.1133 -12.7272 -31.0327
RightLeg  50.5029 -1.90823 -2.85795
RightFoot  -8.70078 -0.812431 31.6386
RightToes  -5.28226e-011 1.30204e-014 -6.03759e-014
Spine  29.9115 -4.3268 2.57937
Spine1  -4.94532 -3.96107 -1.22838
HEad  -15.2581 -2.84953 -8.66802
LeftShoulder1  0.77228 0.658897 -20.9236
LeftArm  -11.9151 1.85082 -29.7629
LeftForeArm  -32.3507 -7.43705 -12.0865
LeftHand  0.0239944 5.50971 25.7716
RightShoulder  2.02029 3.23622 23.8371
RightArm  -42.4342 -48.659 43.9006
RightForeArm  -21.0669 65.3823 27.4202
RightHand  -0.855199 -1.38918 -24.6189
LeftUpLeg  -27.1974 -1.86755 22.5691
LeftLeg  38.9237 -1.18733 -0.51495
LeftFoot  29.058 5.11643 -14.2189
LeftToes  -2.75829e-010 5.07641e-011 -5.51782e-011
273
root  12.2606 34.2403 -4.6799 -30.7907 -71.3509 23.6165
RightUpLeg  -14.4145 -14.3437 -34.5601
RightLeg  56.177 -1.29538 -2.52381
RightFoot  -8.95008 -0.716908 30.6892
RightToes  -5.28226e-011 1.30204e-014 -6.03759e-014
Spine  31.5096 -2.6918 12.9106
Spine1  -3.87005 2.40542 -13.8308
HEad  -14.6584 -19.029 -3.1613
LeftShoulder1  0.371906 2.13567 -20.7074
LeftArm  -15.9767 -14.5088 -37.7186
LeftForeArm  -30.9656 -5.7684 -11.1504
LeftHand  0.0574586 5.62161 27.7261
RightShoulder  2.59082 4.31493 27.236
RightArm  -32.8978 -58.8019 33.0112
RightForeArm  -24.4742 59.4184 22.0176
RightHand  -0.94908 -0.404795 -22.0022
LeftUpLeg  -29.5916 -6.68204 19.4757
LeftLeg  47.6383 4.52985 5.77619
LeftFoot  21.2121 3.81259 -13.65
LeftToes  -2.75829e-010 5.07641e-011 -5.51782e-011
274
root  12.5393 32.9949 -3.65925 -38.5418 -73.5694 27.4147
RightUpLeg  -14.6594 -12.7204 -37.3274
RightLeg  60.4675 -0.816826 -2.0719
RightFoot  -10.3687 -0.320511 28.0674
RightToes  -5.28226e-011 1.30204e-014 -6.03759e-014
Spine  35.4428 -1.01517 18.3958
Spine1  -2.01721 7.73651 -19.7436
HEad  -16.1567 -28.0489 0.0730951
LeftShoulder1  0.196124 2.75799 -20.1191
LeftArm  -14.6417 -18.6846 -46.1495
LeftForeArm  -34.6172 -13.4589 -9.775
LeftHand  0.107014 5.83338 27.629
RightShoulder  2.35992 4.03281 25.1944
RightArm  -18.2243 -54.23 19.9663
RightForeArm  -34.0816 42.3379 12.1029
RightHand  -1.24176 1.08468 -22.1928
LeftUpLeg  -26.666 -9.83201 18.8759
LeftLeg  55.1936 6.23348 9.87595
LeftFoot  8.21738 3.75469 -22.3603
LeftToes  -2.75829e-010 5.07641e-011 -5.51782e-011
275
root  12.6471 31.7948 -2.72316 -57.9026 -78.714 43.7835
RightUpLeg  -16.9097 -7.73739 -37.935
RightLeg  62.8585 -0.127571 -0.827557
RightFoot  -14.6101 0.707355 27.4131
RightToes  -5.28226e-011 1.30204e-014 -6.03759e-014
Spine  38.3369 0.292466 17.1685
Spine1  -0.826821 9.56565 -18.9781
HEad  -16.263 -25.4169 -1.3993
LeftShoulder1  0.51947 1.58256 -20.1902
LeftArm  -15.5278 -7.61654 -47.6688
LeftForeArm  -40.741 -32.6796 -8.82212
LeftHand  0.250529 6.42987 27.3909
RightShoulder  1.79399 3.15976 20.6162
RightArm  -13.7207 -35.7218 14.2772
RightForeArm  -39.7461 22.0196 6.71097
RightHand  -1.3297 1.08487 -23.6968
LeftUpLeg  -20.9343 -7.87325 20.9718
LeftLeg  59.2438 2.39095 4.87249
LeftFoot  -4.06448 2.32133 -34.6262
LeftToes  -2.75829e-010 5.07641e-011 -5.51782e-011
276
root  12.5605 30.7577 -2.04149 -93.0959 -82.7407 77.8994
RightUpLeg  -20.6115 -1.67199 -36.9797
RightLeg  64.7257 0.601383 0.783008
RightFoot  -18.1586 1.63809 29.0502
RightToes  -5.28226e-011 1.30204e-014 -6.03759e-014
Spine  38.3915 0.860143 10.8959
Spine1  -0.826818 7.16254 -14.7596
HEad  -14.7576 -13.2609 -6.26464
LeftShoulder1  1.39118 -1.1778 -23.3778
LeftArm  -28.1792 10.9782 -41.2995
LeftForeArm  -35.1302 -51.4798 -16.1392
LeftHand  0.601279 7.72012 29.2093
RightShoulder  1.51881 2.68672 18.0598
RightArm  -21.8737 -13.5924 15.304
RightForeArm  -32.1351 12.9614 6.60564
RightHand  -1.5921 1.67399 -25.9519
LeftUpLeg  -15.7715 -2.17394 24.9778
LeftLeg  61.3312 -2.66627 -4.65586
LeftFoot  -14.5338 -0.978054 -39.1336
LeftToes  -2.75829e-010 5.07641e-011 -5.51782e-011
277
root  12.392 30.0467 -1.51571 -116.696 -84.7393 100.385
RightUpLeg  -21.4337 2.31516 -35.1803
RightLeg  66.0966 0.617577 0.873131
RightFoot  -18.8152 1.87606 30.0401
RightToes  -5.28226e-011 1.30204e-014 -6.03759e-014
Spine  37.372 0.545862 4.09299
Spine1  -0.583343 2.96086 -8.41759
HEad  -14.4775 -0.549635 -9.53086
LeftShoulder1  1.85041 -2.17611 -26.4948
LeftArm  -30.7578 22.7126 -36.7637
LeftForeArm  -34.9756 -56.3217 -19.4409
LeftHand  0.948745 8.75376 31.7667
RightShoulder  1.50697 2.87783 17.0214
RightArm  -21.0635 -2.95165 20.3408
RightForeArm  -28.1779 21.3777 7.08865
RightHand  -1.78246 2.24582 -26.8609
LeftUpLeg  -12.6859 2.12427 29.2773
LeftLeg  63.2183 -5.24951 -10.5446
LeftFoot  -23.1283 -3.74017 -36.4859
LeftToes  -2.75829e-010 5.07641e-011 -5.51782e-011
278
root  12.2217 29.8597 -0.944489 -127.8 -88.5737 109.417
RightUpLeg  -17.2912 3.43882 -32.5076
RightLeg  65.3412 -0.230243 -1.14079
RightFoot  -18.2699 1.80221 30.9899
RightToes  -5.28226e-011 1.30204e-014 -6.03759e-014
Spine  36.5602 0.570809 -0.492845
Spine1  1.4642 -0.163216 -0.573813
HEad  -14.8585 5.57623 -8.33452
LeftShoulder1  1.60626 -1.82873 -23.9171
LeftArm  -26.7644 22.7975 -39.072
LeftForeArm  -41.6322 -46.5492 -14.2273
LeftHand  1.05816 9.0436 32.5118
RightShoulder  1.4734 2.81411 16.7101
RightArm  -20.7467 -8.47339 24.6219
RightForeArm  -24.2948 38.2907 10.2098
RightHand  -1.46832 1.23527 -25.5317
LeftUpLeg  -11.5708 1.49135 32.2412
LeftLeg  64.3019 -5.64144 -11.9475
LeftFoot  -28.8886 -5.16692 -33.605
LeftToes  -2.75829e-010 5.07641e-011 -5.51782e-011
279
root  12.0173 30.2752 -0.331018 1.28352 -87.3443 -21.0957
RightUpLeg  -12.5979 4.36007 -29.788
RightLeg  62.3481 -1.25045 -3.14871
RightFoot  -15.8362 1.26112 35.0588
RightToes  -5.28226e-011 1.30204e-014 -6.03759e-014
Spine  34.9427 1.94087 -3.99813
Spine1  3.91888 -1.46411 6.60812
HEad  -14.6652 6.82701 -4.51596
LeftShoulder1  1.69932 -2.98357 -19.7394
LeftArm  -22.4583 17.5375 -43.5066
LeftForeArm  -46.9994 -32.9936 -9.21813
LeftHand  0.987774 8.76956 32.7915
RightShoulder  1.50196 2.33101 19.3773
RightArm  -24.8948 -20.8463 25.7401
RightForeArm  -21.2244 52.1481 15.8508
RightHand  -1.22172 0.206796 -25.1452
LeftUpLeg  -10.6639 -1.51965 33.2423
LeftLeg  63.4626 -5.64359 -11.5072
LeftFoot  -30.893 -5.62301 -32.8526
LeftToes  -2.75829e-010 5.07641e-011 -5.51782e-011
280
root  11.838 31.1164 0.342862 68.093 -86.5091 -87.7556
RightUpLeg  -13.3182 7.32883 -27.5545
RightLeg  59.5249 -1.62575 -3.48162
RightFoot  -5.84039 -1.97263 38.9463
RightToes  -5.28226e-011 1.30204e-014 -6.03759e-014
Spine  32.133 3.15952 -8.59934
Spine1  5.29403 -2.81862 11.759
HEad  -13.8688 11.9507 -2.33481
LeftShoulder1  2.32161 -5.48758 -19.277
LeftArm  -21.7536 17.5106 -43.6126
LeftForeArm  -49.6943 -24.0051 -7.14191
LeftHand  1.00607 8.71098 33.8171
RightShoulder  1.47619 1.62819 22.5827
RightArm  -26.1211 -26.7334 28.6668
RightForeArm  -22.5299 55.6198 18.2836
RightHand  -1.23502 0.0633201 -26.0441
LeftUpLeg  -7.77324 -2.04953 33.5245
LeftLeg  60.7357 -5.33073 -9.6381
LeftFoot  -30.6757 -5.5182 -32.6404
LeftToes  -2.75829e-010 5.07641e-011 -5.51782e-011
281
root  11.7824 32.169 1.0467 130.371 -81.7338 -149.378
RightUpLeg  -20.0569 10.2091 -25.3806
RightLeg  58.1527 -1.32955 -2.76946
RightFoot  14.0185 -7.65492 34.3647
RightToes  -5.28226e-011 1.30204e-014 -6.03759e-014
Spine  29.7811 2.45353 -14.9347
Spine1  5.44777 -6.11597 16.1963
HEad  -12.4228 25.9946 -3.12775
LeftShoulder1  2.60845 -6.33287 -20.0811
LeftArm  -22.6154 26.3512 -41.782
LeftForeArm  -53.635 -19.0726 -6.99025
LeftHand  1.13368 9.24792 33.0262
RightShoulder  1.14266 0.587982 21.6427
RightArm  -23.092 -23.8434 37.6339
RightForeArm  -23.4646 51.4781 15.8116
RightHand  -1.19541 -0.186764 -26.3998
LeftUpLeg  -2.27723 0.868358 34.6039
LeftLeg  56.4251 -4.1123 -6.12216
LeftFoot  -29.6913 -5.15201 -32.1968
LeftToes  -2.75829e-010 5.07641e-011 -5.51782e-011
